<?xml version="1.0" encoding="UTF-8"?>
<svg id="Ebene_1" xmlns="http://www.w3.org/2000/svg" version="1.1" viewBox="0 0 100 100">
  <!-- Generator: Adobe Illustrator 30.0.0, SVG Export Plug-In . SVG Version: 2.1.1 Build 123)  -->
  <path d="M27.3,50c0-7.5-6.1-13.6-13.6-13.6,5.1,0,9.8-1.7,13.6-4.5,1.7-1.3,3.3-2.8,4.5-4.5,2.9-3.8,4.5-8.5,4.5-13.6,0-7.5,6.1-13.6,13.6-13.6,7.5,0,13.6,6.1,13.6,13.6s-6.1,13.6-13.6,13.6c-5.1,0-9.8,1.7-13.6,4.5-1.7,1.3-3.3,2.8-4.5,4.5-2.9,3.8-4.5,8.5-4.5,13.6Z"/>
  <circle cx="86.9" cy="86.9" r="13.1"/>
  <path d="M50,64.6c-7.5,0-13.6-6.1-13.6-13.6,0-7.5,6.1-13.6,13.6-13.6,5.1,0,9.8-1.7,13.6-4.5,1.7-1.3,3.3-2.8,4.5-4.5,2.9-3.8,4.5-8.5,4.5-13.6,0-7.5,6.1-13.6,13.6-13.6,7.5,0,13.6,6.1,13.6,13.6s-6.1,13.6-13.6,13.6c-5.1,0-9.8,1.7-13.6,4.5-1.7,1.3-3.3,2.8-4.5,4.5-2.9,3.8-4.5,8.5-4.5,13.6,0,7.5-6.1,13.6-13.6,13.6Z"/>
  <path d="M50,100c-7.5,0-13.6-6.1-13.6-13.6,0-5.1-1.7-9.8-4.5-13.6-1.3-1.7-2.8-3.3-4.5-4.5-3.8-2.9-8.5-4.5-13.6-4.5-7.5,0-13.6-6.1-13.6-13.6,0-7.5,6.1-13.6,13.6-13.6,7.5,0,13.6,6.1,13.6,13.6,0,5.1,1.7,9.8,4.5,13.6,1.3,1.7,2.8,3.3,4.5,4.5,3.8,2.9,8.5,4.5,13.6,4.5s9.8-1.7,13.6-4.5c1.7-1.3,3.3-2.8,4.5-4.5,2.9-3.8,4.5-8.5,4.5-13.6,0-7.5,6.1-13.6,13.6-13.6,7.5,0,13.6,6.1,13.6,13.6,0,7.5-6.1,13.6-13.6,13.6-5.1,0-9.8,1.7-13.6,4.5-1.7,1.3-3.3,2.8-4.5,4.5-2.9,3.8-4.5,8.5-4.5,13.6,0,7.5-6.1,13.6-13.6,13.6Z"/>
</svg>